<?xml version="1.0" encoding="UTF-8"?>
<svg xmlns="http://www.w3.org/2000/svg" xmlns:xlink="http://www.w3.org/1999/xlink" width="239.024pt" height="182.332pt" viewBox="0 0 239.024 182.332" version="1.1">
<defs>
<g>
<symbol overflow="visible" id="glyph0-0">
<path style="stroke:none;" d=""/>
</symbol>
<symbol overflow="visible" id="glyph0-1">
<path style="stroke:none;" d="M 2.265625 -3.15625 L 3.953125 -3.15625 C 5.140625 -3.15625 6.21875 -3.953125 6.21875 -4.953125 C 6.21875 -5.9375 5.234375 -6.8125 3.875 -6.8125 L 0.34375 -6.8125 L 0.34375 -6.5 L 0.59375 -6.5 C 1.359375 -6.5 1.375 -6.390625 1.375 -6.03125 L 1.375 -0.78125 C 1.375 -0.421875 1.359375 -0.3125 0.59375 -0.3125 L 0.34375 -0.3125 L 0.34375 0 C 0.703125 -0.03125 1.4375 -0.03125 1.8125 -0.03125 C 2.1875 -0.03125 2.9375 -0.03125 3.296875 0 L 3.296875 -0.3125 L 3.046875 -0.3125 C 2.28125 -0.3125 2.265625 -0.421875 2.265625 -0.78125 Z M 2.234375 -3.40625 L 2.234375 -6.09375 C 2.234375 -6.4375 2.25 -6.5 2.71875 -6.5 L 3.609375 -6.5 C 5.1875 -6.5 5.1875 -5.4375 5.1875 -4.953125 C 5.1875 -4.484375 5.1875 -3.40625 3.609375 -3.40625 Z M 2.234375 -3.40625 "/>
</symbol>
<symbol overflow="visible" id="glyph0-2">
<path style="stroke:none;" d="M 3.203125 -0.15625 C 2.671875 -0.359375 1.5625 -1.09375 1.5625 -3.375 C 1.5625 -5.96875 2.953125 -6.78125 3.875 -6.78125 C 4.828125 -6.78125 6.1875 -5.921875 6.1875 -3.375 C 6.1875 -2.609375 6.078125 -1.203125 5.015625 -0.421875 C 4.796875 -0.984375 4.46875 -1.46875 3.890625 -1.46875 C 3.375 -1.46875 3.078125 -1.046875 3.078125 -0.640625 C 3.078125 -0.375 3.203125 -0.171875 3.203125 -0.15625 Z M 4.75 -0.265625 C 4.421875 -0.0625 4.09375 -0.03125 3.875 -0.03125 C 3.375 -0.03125 3.296875 -0.484375 3.296875 -0.640625 C 3.296875 -0.921875 3.5 -1.25 3.890625 -1.25 C 4.421875 -1.25 4.640625 -0.84375 4.75 -0.265625 Z M 5.15625 -0.0625 C 6.34375 -0.59375 7.1875 -1.875 7.1875 -3.375 C 7.1875 -5.40625 5.6875 -7.03125 3.875 -7.03125 C 2.078125 -7.03125 0.5625 -5.4375 0.5625 -3.375 C 0.5625 -1.359375 2.0625 0.21875 3.875 0.21875 C 4.1875 0.21875 4.53125 0.15625 4.828125 0.0625 C 4.96875 1.015625 5.109375 1.9375 6.046875 1.9375 C 7.0625 1.9375 7.25 0.609375 7.25 0.09375 C 7.25 0 7.25 -0.109375 7.140625 -0.109375 C 7.046875 -0.109375 7.03125 -0.03125 7.03125 0.0625 C 6.96875 0.609375 6.546875 0.90625 6.125 0.90625 C 5.65625 0.90625 5.40625 0.5625 5.15625 -0.0625 Z M 5.15625 -0.0625 "/>
</symbol>
<symbol overflow="visible" id="glyph0-3">
<path style="stroke:none;" d="M 4.078125 -2.296875 L 6.859375 -2.296875 C 7 -2.296875 7.1875 -2.296875 7.1875 -2.5 C 7.1875 -2.6875 7 -2.6875 6.859375 -2.6875 L 4.078125 -2.6875 L 4.078125 -5.484375 C 4.078125 -5.625 4.078125 -5.8125 3.875 -5.8125 C 3.671875 -5.8125 3.671875 -5.625 3.671875 -5.484375 L 3.671875 -2.6875 L 0.890625 -2.6875 C 0.75 -2.6875 0.5625 -2.6875 0.5625 -2.5 C 0.5625 -2.296875 0.75 -2.296875 0.890625 -2.296875 L 3.671875 -2.296875 L 3.671875 0.5 C 3.671875 0.640625 3.671875 0.828125 3.875 0.828125 C 4.078125 0.828125 4.078125 0.640625 4.078125 0.5 Z M 4.078125 -2.296875 "/>
</symbol>
<symbol overflow="visible" id="glyph0-4">
<path style="stroke:none;" d="M 4.40625 -6.953125 C 4.34375 -7.09375 4.3125 -7.140625 4.140625 -7.140625 C 3.984375 -7.140625 3.953125 -7.09375 3.890625 -6.953125 L 0.515625 -0.203125 C 0.46875 -0.109375 0.46875 -0.09375 0.46875 -0.078125 C 0.46875 0 0.53125 0 0.6875 0 L 7.609375 0 C 7.765625 0 7.828125 0 7.828125 -0.078125 C 7.828125 -0.09375 7.828125 -0.109375 7.78125 -0.203125 Z M 3.828125 -6.140625 L 6.515625 -0.75 L 1.140625 -0.75 Z M 3.828125 -6.140625 "/>
</symbol>
<symbol overflow="visible" id="glyph0-5">
<path style="stroke:none;" d="M 3.296875 2.390625 C 3.296875 2.359375 3.296875 2.34375 3.125 2.171875 C 1.890625 0.921875 1.5625 -0.96875 1.5625 -2.5 C 1.5625 -4.234375 1.9375 -5.96875 3.171875 -7.203125 C 3.296875 -7.328125 3.296875 -7.34375 3.296875 -7.375 C 3.296875 -7.453125 3.265625 -7.484375 3.203125 -7.484375 C 3.09375 -7.484375 2.203125 -6.796875 1.609375 -5.53125 C 1.109375 -4.4375 0.984375 -3.328125 0.984375 -2.5 C 0.984375 -1.71875 1.09375 -0.515625 1.640625 0.625 C 2.25 1.84375 3.09375 2.5 3.203125 2.5 C 3.265625 2.5 3.296875 2.46875 3.296875 2.390625 Z M 3.296875 2.390625 "/>
</symbol>
<symbol overflow="visible" id="glyph0-6">
<path style="stroke:none;" d="M 2.875 -2.5 C 2.875 -3.265625 2.765625 -4.46875 2.21875 -5.609375 C 1.625 -6.828125 0.765625 -7.484375 0.671875 -7.484375 C 0.609375 -7.484375 0.5625 -7.4375 0.5625 -7.375 C 0.5625 -7.34375 0.5625 -7.328125 0.75 -7.140625 C 1.734375 -6.15625 2.296875 -4.578125 2.296875 -2.5 C 2.296875 -0.78125 1.9375 0.96875 0.703125 2.21875 C 0.5625 2.34375 0.5625 2.359375 0.5625 2.390625 C 0.5625 2.453125 0.609375 2.5 0.671875 2.5 C 0.765625 2.5 1.671875 1.8125 2.25 0.546875 C 2.765625 -0.546875 2.875 -1.65625 2.875 -2.5 Z M 2.875 -2.5 "/>
</symbol>
<symbol overflow="visible" id="glyph1-0">
<path style="stroke:none;" d=""/>
</symbol>
<symbol overflow="visible" id="glyph1-1">
<path style="stroke:none;" d="M 3.328125 -3.015625 C 3.390625 -3.265625 3.625 -4.1875 4.3125 -4.1875 C 4.359375 -4.1875 4.609375 -4.1875 4.8125 -4.0625 C 4.53125 -4 4.34375 -3.765625 4.34375 -3.515625 C 4.34375 -3.359375 4.453125 -3.171875 4.71875 -3.171875 C 4.9375 -3.171875 5.25 -3.34375 5.25 -3.75 C 5.25 -4.265625 4.671875 -4.40625 4.328125 -4.40625 C 3.75 -4.40625 3.40625 -3.875 3.28125 -3.65625 C 3.03125 -4.3125 2.5 -4.40625 2.203125 -4.40625 C 1.171875 -4.40625 0.59375 -3.125 0.59375 -2.875 C 0.59375 -2.765625 0.703125 -2.765625 0.71875 -2.765625 C 0.796875 -2.765625 0.828125 -2.796875 0.84375 -2.875 C 1.1875 -3.9375 1.84375 -4.1875 2.1875 -4.1875 C 2.375 -4.1875 2.71875 -4.09375 2.71875 -3.515625 C 2.71875 -3.203125 2.546875 -2.546875 2.1875 -1.140625 C 2.03125 -0.53125 1.671875 -0.109375 1.234375 -0.109375 C 1.171875 -0.109375 0.953125 -0.109375 0.734375 -0.234375 C 0.984375 -0.296875 1.203125 -0.5 1.203125 -0.78125 C 1.203125 -1.046875 0.984375 -1.125 0.84375 -1.125 C 0.53125 -1.125 0.296875 -0.875 0.296875 -0.546875 C 0.296875 -0.09375 0.78125 0.109375 1.21875 0.109375 C 1.890625 0.109375 2.25 -0.59375 2.265625 -0.640625 C 2.390625 -0.28125 2.75 0.109375 3.34375 0.109375 C 4.375 0.109375 4.9375 -1.171875 4.9375 -1.421875 C 4.9375 -1.53125 4.859375 -1.53125 4.828125 -1.53125 C 4.734375 -1.53125 4.71875 -1.484375 4.6875 -1.421875 C 4.359375 -0.34375 3.6875 -0.109375 3.375 -0.109375 C 2.984375 -0.109375 2.828125 -0.421875 2.828125 -0.765625 C 2.828125 -0.984375 2.875 -1.203125 2.984375 -1.640625 Z M 3.328125 -3.015625 "/>
</symbol>
<symbol overflow="visible" id="glyph1-2">
<path style="stroke:none;" d="M 3.65625 -3.984375 L 4.515625 -3.984375 C 4.71875 -3.984375 4.8125 -3.984375 4.8125 -4.1875 C 4.8125 -4.296875 4.71875 -4.296875 4.546875 -4.296875 L 3.71875 -4.296875 L 3.921875 -5.4375 C 3.96875 -5.640625 4.109375 -6.34375 4.171875 -6.46875 C 4.25 -6.65625 4.421875 -6.8125 4.640625 -6.8125 C 4.671875 -6.8125 4.9375 -6.8125 5.125 -6.625 C 4.6875 -6.59375 4.578125 -6.234375 4.578125 -6.09375 C 4.578125 -5.859375 4.765625 -5.734375 4.953125 -5.734375 C 5.21875 -5.734375 5.5 -5.96875 5.5 -6.34375 C 5.5 -6.796875 5.046875 -7.03125 4.640625 -7.03125 C 4.296875 -7.03125 3.671875 -6.84375 3.375 -5.859375 C 3.3125 -5.65625 3.28125 -5.546875 3.046875 -4.296875 L 2.359375 -4.296875 C 2.15625 -4.296875 2.046875 -4.296875 2.046875 -4.109375 C 2.046875 -3.984375 2.140625 -3.984375 2.328125 -3.984375 L 2.984375 -3.984375 L 2.25 -0.046875 C 2.0625 0.921875 1.890625 1.828125 1.375 1.828125 C 1.328125 1.828125 1.09375 1.828125 0.890625 1.640625 C 1.359375 1.609375 1.453125 1.25 1.453125 1.109375 C 1.453125 0.875 1.265625 0.75 1.078125 0.75 C 0.8125 0.75 0.53125 0.984375 0.53125 1.359375 C 0.53125 1.796875 0.96875 2.046875 1.375 2.046875 C 1.921875 2.046875 2.328125 1.453125 2.5 1.078125 C 2.828125 0.453125 3.046875 -0.75 3.0625 -0.828125 Z M 3.65625 -3.984375 "/>
</symbol>
<symbol overflow="visible" id="glyph1-3">
<path style="stroke:none;" d="M 4.84375 -3.796875 C 4.890625 -3.9375 4.890625 -3.953125 4.890625 -4.03125 C 4.890625 -4.203125 4.75 -4.296875 4.59375 -4.296875 C 4.5 -4.296875 4.34375 -4.234375 4.25 -4.09375 C 4.234375 -4.03125 4.140625 -3.734375 4.109375 -3.546875 C 4.03125 -3.296875 3.96875 -3.015625 3.90625 -2.75 L 3.453125 -0.953125 C 3.421875 -0.8125 2.984375 -0.109375 2.328125 -0.109375 C 1.828125 -0.109375 1.71875 -0.546875 1.71875 -0.921875 C 1.71875 -1.375 1.890625 -2 2.21875 -2.875 C 2.375 -3.28125 2.421875 -3.390625 2.421875 -3.59375 C 2.421875 -4.03125 2.109375 -4.40625 1.609375 -4.40625 C 0.65625 -4.40625 0.296875 -2.953125 0.296875 -2.875 C 0.296875 -2.765625 0.390625 -2.765625 0.40625 -2.765625 C 0.515625 -2.765625 0.515625 -2.796875 0.5625 -2.953125 C 0.84375 -3.890625 1.234375 -4.1875 1.578125 -4.1875 C 1.65625 -4.1875 1.828125 -4.1875 1.828125 -3.875 C 1.828125 -3.625 1.71875 -3.359375 1.65625 -3.171875 C 1.25 -2.109375 1.078125 -1.546875 1.078125 -1.078125 C 1.078125 -0.1875 1.703125 0.109375 2.296875 0.109375 C 2.6875 0.109375 3.015625 -0.0625 3.296875 -0.34375 C 3.171875 0.171875 3.046875 0.671875 2.65625 1.203125 C 2.390625 1.53125 2.015625 1.828125 1.5625 1.828125 C 1.421875 1.828125 0.96875 1.796875 0.796875 1.40625 C 0.953125 1.40625 1.09375 1.40625 1.21875 1.28125 C 1.328125 1.203125 1.421875 1.0625 1.421875 0.875 C 1.421875 0.5625 1.15625 0.53125 1.0625 0.53125 C 0.828125 0.53125 0.5 0.6875 0.5 1.171875 C 0.5 1.671875 0.9375 2.046875 1.5625 2.046875 C 2.578125 2.046875 3.609375 1.140625 3.890625 0.015625 Z M 4.84375 -3.796875 "/>
</symbol>
</g>
<clipPath id="clip1">
  <path d="M 59 1 L 61 1 L 61 182.332031 L 59 182.332031 Z M 59 1 "/>
</clipPath>
<clipPath id="clip2">
  <path d="M 28 0.195312 L 238.828125 0.195312 L 238.828125 90 L 28 90 Z M 28 0.195312 "/>
</clipPath>
</defs>
<g id="surface1">
<path style="fill:none;stroke-width:0.3985;stroke-linecap:butt;stroke-linejoin:miter;stroke:rgb(0%,0%,0%);stroke-opacity:1;stroke-miterlimit:10;" d="M 0.00021875 51.980656 L 236.636937 51.980656 " transform="matrix(1,0,0,-1,0.199,182.133)"/>
<path style=" stroke:none;fill-rule:nonzero;fill:rgb(0%,0%,0%);fill-opacity:1;" d="M 238.828125 130.152344 L 235.640625 128.558594 L 236.835938 130.152344 L 235.640625 131.746094 "/>
<g clip-path="url(#clip1)" clip-rule="nonzero">
<path style="fill:none;stroke-width:0.3985;stroke-linecap:butt;stroke-linejoin:miter;stroke:rgb(0%,0%,0%);stroke-opacity:1;stroke-miterlimit:10;" d="M 59.656469 0.0001875 L 59.656469 179.941594 " transform="matrix(1,0,0,-1,0.199,182.133)"/>
</g>
<path style=" stroke:none;fill-rule:nonzero;fill:rgb(0%,0%,0%);fill-opacity:1;" d="M 59.855469 0.195312 L 58.261719 3.386719 L 59.855469 2.191406 L 61.449219 3.386719 "/>
<g clip-path="url(#clip2)" clip-rule="nonzero">
<path style="fill:none;stroke-width:0.79701;stroke-linecap:butt;stroke-linejoin:miter;stroke:rgb(0%,0%,100%);stroke-opacity:1;stroke-miterlimit:10;" d="M 39.76975 133.203313 C 39.76975 133.203313 40.492406 132.500188 40.76975 132.230656 C 41.047094 131.965031 41.492406 131.53925 41.76975 131.277531 C 42.047094 131.015813 42.492406 130.597844 42.76975 130.340031 C 43.047094 130.078313 43.492406 129.668156 43.76975 129.41425 C 44.047094 129.16425 44.492406 128.758 44.76975 128.511906 C 45.043188 128.261906 45.4885 127.867375 45.765844 127.621281 C 46.043188 127.375188 46.4885 126.988469 46.765844 126.746281 C 47.043188 126.508 47.4885 126.125188 47.765844 125.890813 C 48.043188 125.656438 48.4885 125.281438 48.765844 125.050969 C 49.043188 124.8205 49.4885 124.453313 49.765844 124.22675 C 50.043188 124.000188 50.484594 123.640813 50.761938 123.422063 C 51.039281 123.199406 51.484594 122.847844 51.761938 122.629094 C 52.039281 122.41425 52.484594 122.066594 52.761938 121.855656 C 53.039281 121.640813 53.484594 121.304875 53.761938 121.097844 C 54.039281 120.890813 54.484594 120.558781 54.761938 120.355656 C 55.039281 120.152531 55.480688 119.828313 55.758031 119.629094 C 56.035375 119.429875 56.480688 119.117375 56.758031 118.922063 C 57.035375 118.72675 57.480688 118.418156 57.758031 118.230656 C 58.035375 118.03925 58.480688 117.738469 58.758031 117.554875 C 59.035375 117.367375 59.480688 117.074406 59.758031 116.894719 C 60.035375 116.711125 60.480688 116.425969 60.758031 116.250188 C 61.035375 116.074406 61.476781 115.797063 61.754125 115.625188 C 62.031469 115.453313 62.476781 115.179875 62.754125 115.011906 C 63.031469 114.847844 63.476781 114.582219 63.754125 114.418156 C 64.031469 114.258 64.476781 114.000188 64.754125 113.840031 C 65.031469 113.683781 65.476781 113.433781 65.754125 113.281438 C 66.031469 113.125188 66.472875 112.883 66.750219 112.734563 C 67.027563 112.586125 67.472875 112.35175 67.750219 112.207219 C 68.027563 112.062688 68.472875 111.836125 68.750219 111.6955 C 69.027563 111.554875 69.472875 111.336125 69.750219 111.199406 C 70.027563 111.066594 70.472875 110.85175 70.750219 110.718938 C 71.027563 110.590031 71.472875 110.383 71.750219 110.258 C 72.027563 110.133 72.468969 109.933781 72.746313 109.812688 C 73.023656 109.691594 73.468969 109.500188 73.746313 109.383 C 74.023656 109.265813 74.468969 109.082219 74.746313 108.968938 C 75.023656 108.855656 75.468969 108.679875 75.746313 108.5705 C 76.023656 108.465031 76.468969 108.293156 76.746313 108.191594 C 77.023656 108.086125 77.465063 107.925969 77.742406 107.828313 C 78.01975 107.72675 78.465063 107.574406 78.742406 107.47675 C 79.01975 107.383 79.465063 107.238469 79.742406 107.148625 C 80.01975 107.058781 80.465063 106.918156 80.742406 106.832219 C 81.01975 106.746281 81.465063 106.613469 81.742406 106.535344 C 82.01975 106.453313 82.465063 106.328313 82.742406 106.250188 C 83.015844 106.175969 83.461156 106.058781 83.7385 105.984563 C 84.015844 105.91425 84.461156 105.804875 84.7385 105.734563 C 85.015844 105.668156 85.461156 105.566594 85.7385 105.504094 C 86.015844 105.441594 86.461156 105.343938 86.7385 105.285344 C 87.015844 105.22675 87.461156 105.140813 87.7385 105.086125 C 88.015844 105.031438 88.45725 104.949406 88.734594 104.902531 C 89.011938 104.855656 89.45725 104.777531 89.734594 104.734563 C 90.011938 104.691594 90.45725 104.625188 90.734594 104.586125 C 91.011938 104.543156 91.45725 104.484563 91.734594 104.449406 C 92.011938 104.41425 92.45725 104.363469 92.734594 104.332219 C 93.011938 104.300969 93.453344 104.254094 93.730688 104.230656 C 94.008031 104.203313 94.453344 104.16425 94.730688 104.144719 C 95.008031 104.121281 95.453344 104.093938 95.730688 104.074406 C 96.008031 104.058781 96.453344 104.035344 96.730688 104.023625 C 97.008031 104.011906 97.453344 103.996281 97.730688 103.988469 C 98.008031 103.980656 98.453344 103.968938 98.730688 103.968938 C 99.008031 103.965031 99.449438 103.961125 99.726781 103.965031 C 100.004125 103.965031 100.449438 103.972844 100.726781 103.97675 C 101.004125 103.984563 101.449438 103.996281 101.726781 104.008 C 102.004125 104.015813 102.449438 104.03925 102.726781 104.050969 C 103.004125 104.066594 103.449438 104.093938 103.726781 104.113469 C 104.004125 104.133 104.445531 104.168156 104.722875 104.1955 C 105.000219 104.218938 105.445531 104.261906 105.722875 104.28925 C 106.000219 104.316594 106.445531 104.367375 106.722875 104.398625 C 107.000219 104.433781 107.445531 104.492375 107.722875 104.527531 C 108.000219 104.566594 108.445531 104.629094 108.722875 104.672063 C 109.000219 104.715031 109.445531 104.785344 109.722875 104.832219 C 110.000219 104.879094 110.441625 104.961125 110.718969 105.011906 C 110.996313 105.062688 111.441625 105.148625 111.718969 105.203313 C 111.996313 105.261906 112.441625 105.355656 112.718969 105.41425 C 112.996313 105.47675 113.441625 105.574406 113.718969 105.640813 C 113.996313 105.707219 114.441625 105.812688 114.718969 105.883 C 114.996313 105.953313 115.437719 106.0705 115.715063 106.144719 C 115.992406 106.218938 116.437719 106.340031 116.715063 106.418156 C 116.992406 106.496281 117.437719 106.629094 117.715063 106.711125 C 117.992406 106.793156 118.437719 106.929875 118.715063 107.019719 C 118.992406 107.105656 119.437719 107.250188 119.715063 107.343938 C 119.992406 107.437688 120.437719 107.590031 120.711156 107.683781 C 120.9885 107.781438 121.433813 107.941594 121.711156 108.043156 C 121.9885 108.144719 122.433813 108.312688 122.711156 108.418156 C 122.9885 108.523625 123.433813 108.6955 123.711156 108.808781 C 123.9885 108.918156 124.433813 109.097844 124.711156 109.215031 C 124.9885 109.328313 125.433813 109.519719 125.711156 109.636906 C 125.9885 109.758 126.429906 109.953313 126.70725 110.078313 C 126.984594 110.203313 127.429906 110.406438 127.70725 110.535344 C 127.984594 110.66425 128.429906 110.871281 128.70725 111.008 C 128.984594 111.140813 129.429906 111.355656 129.70725 111.496281 C 129.984594 111.633 130.429906 111.859563 130.70725 112.000188 C 130.984594 112.144719 131.426 112.375188 131.703344 112.523625 C 131.980687 112.668156 132.426 112.910344 132.703344 113.058781 C 132.980687 113.211125 133.426 113.457219 133.703344 113.613469 C 133.980687 113.769719 134.426 114.023625 134.703344 114.187688 C 134.980687 114.347844 135.426 114.609563 135.703344 114.773625 C 135.980687 114.937688 136.426 115.207219 136.703344 115.379094 C 136.980687 115.547063 137.422094 115.824406 137.699437 115.996281 C 137.976781 116.172063 138.422094 116.453313 138.699437 116.633 C 138.976781 116.812688 139.422094 117.10175 139.699437 117.285344 C 139.976781 117.468938 140.422094 117.769719 140.699437 117.957219 C 140.976781 118.144719 141.422094 118.449406 141.699437 118.640813 C 141.976781 118.836125 142.418187 119.148625 142.695531 119.343938 C 142.972875 119.543156 143.418187 119.863469 143.695531 120.062688 C 143.972875 120.265813 144.418187 120.593938 144.695531 120.797063 C 144.972875 121.004094 145.418187 121.340031 145.695531 121.550969 C 145.972875 121.761906 146.418187 122.10175 146.695531 122.316594 C 146.972875 122.531438 147.418187 122.883 147.695531 123.10175 C 147.972875 123.3205 148.414281 123.679875 148.691625 123.902531 C 148.968969 124.129094 149.414281 124.492375 149.691625 124.718938 C 149.968969 124.949406 150.414281 125.3205 150.691625 125.554875 C 150.968969 125.785344 151.414281 126.16425 151.691625 126.402531 C 151.968969 126.640813 152.414281 127.027531 152.691625 127.269719 C 152.968969 127.511906 153.410375 127.906438 153.687719 128.152531 C 153.965062 128.398625 154.410375 128.800969 154.687719 129.050969 C 154.965062 129.304875 155.410375 129.711125 155.687719 129.968938 C 155.965062 130.222844 156.410375 130.636906 156.687719 130.898625 C 156.965062 131.160344 157.410375 131.582219 157.687719 131.847844 C 157.965062 132.113469 158.410375 132.543156 158.683812 132.812688 C 158.961156 133.082219 159.406469 133.519719 159.683812 133.793156 C 159.961156 134.066594 160.406469 134.511906 160.683812 134.78925 C 160.961156 135.0705 161.406469 135.519719 161.683812 135.804875 C 161.961156 136.090031 162.406469 136.547063 162.683812 136.836125 C 162.961156 137.125188 163.406469 137.590031 163.683812 137.883 C 163.961156 138.175969 164.402562 138.648625 164.679906 138.9455 C 164.95725 139.242375 165.402562 139.722844 165.679906 140.023625 C 165.95725 140.328313 166.402562 140.816594 166.679906 141.121281 C 166.95725 141.425969 167.402562 141.922063 167.679906 142.234563 C 167.95725 142.543156 168.402562 143.047063 168.679906 143.363469 C 168.95725 143.679875 169.398656 144.187688 169.676 144.508 C 169.953344 144.828313 170.398656 145.343938 170.676 145.668156 C 170.953344 145.992375 171.398656 146.519719 171.676 146.847844 C 171.953344 147.175969 172.398656 147.707219 172.676 148.043156 C 172.953344 148.375188 173.398656 148.91425 173.676 149.254094 C 173.953344 149.590031 174.398656 150.136906 174.676 150.480656 C 174.953344 150.824406 175.39475 151.375188 175.672094 151.722844 C 175.949437 152.0705 176.39475 152.633 176.672094 152.984563 C 176.949437 153.336125 177.39475 153.902531 177.672094 154.261906 C 177.949437 154.617375 178.39475 155.191594 178.672094 155.554875 C 178.949437 155.91425 179.39475 156.496281 179.672094 156.863469 C 179.949437 157.22675 180.390844 157.816594 180.668187 158.187688 C 180.945531 158.558781 181.390844 159.156438 181.668187 159.531438 C 181.945531 159.906438 182.390844 160.511906 182.668187 160.890813 C 182.945531 161.269719 183.390844 161.879094 183.668187 162.265813 C 183.945531 162.648625 184.390844 163.265813 184.668187 163.656438 C 184.945531 164.043156 185.390844 164.672063 185.668187 165.062688 C 185.945531 165.457219 186.386937 166.090031 186.664281 166.488469 C 186.941625 166.886906 187.386937 167.527531 187.664281 167.929875 C 187.941625 168.332219 188.386937 168.980656 188.664281 169.386906 C 188.941625 169.793156 189.386937 170.449406 189.664281 170.859563 C 189.941625 171.269719 190.386937 171.933781 190.664281 172.347844 C 190.941625 172.765813 191.383031 173.433781 191.660375 173.855656 C 191.937719 174.273625 192.383031 174.953313 192.660375 175.379094 C 192.937719 175.800969 193.383031 176.488469 193.660375 176.918156 C 193.937719 177.347844 194.383031 178.03925 194.660375 178.472844 C 194.937719 178.906438 195.383031 179.605656 195.660375 180.043156 C 195.937719 180.480656 196.383031 181.187688 196.656469 181.633 C 196.933812 182.074406 197.379125 182.78925 197.656469 183.238469 C 197.933812 183.683781 198.379125 184.406438 198.656469 184.859563 C 198.933812 185.308781 199.379125 186.03925 199.656469 186.496281 C 199.933812 186.953313 200.379125 187.687688 200.656469 188.148625 C 200.933812 188.609563 201.379125 189.355656 201.656469 189.8205 C 201.933812 190.285344 202.375219 191.035344 202.652562 191.508 C 202.929906 191.97675 203.375219 192.734563 203.652562 193.211125 C 203.929906 193.683781 204.375219 194.449406 204.652562 194.929875 C 204.929906 195.410344 205.375219 196.179875 205.652562 196.66425 C 205.929906 197.148625 206.375219 197.929875 206.652562 198.418156 C 206.929906 198.906438 207.371312 199.691594 207.648656 200.187688 C 207.926 200.679875 208.371312 201.472844 208.648656 201.972844 C 208.926 202.468938 209.371312 203.269719 209.648656 203.773625 C 209.926 204.273625 210.371312 205.086125 210.648656 205.590031 C 210.926 206.097844 211.371312 206.91425 211.648656 207.425969 C 211.926 207.937688 212.371312 208.761906 212.648656 209.277531 C 212.926 209.793156 213.367406 210.621281 213.64475 211.144719 C 213.922094 211.66425 214.367406 212.500188 214.64475 213.027531 C 214.922094 213.550969 215.367406 214.398625 215.64475 214.925969 C 215.922094 215.457219 216.367406 216.308781 216.64475 216.843938 C 216.922094 217.379094 217.367406 218.238469 217.64475 218.777531 C 217.922094 219.316594 218.3635 220.183781 218.640844 220.72675 C 218.918187 221.269719 219.3635 222.144719 219.640844 222.691594 C 219.918187 223.238469 220.3635 224.121281 220.640844 224.672063 C 220.918187 225.22675 221.3635 226.113469 221.640844 226.672063 C 221.918187 227.22675 222.3635 228.125188 222.640844 228.687688 C 222.918187 229.246281 223.3635 230.152531 223.640844 230.718938 C 223.914281 231.285344 224.359594 232.1955 224.636937 232.765813 C 224.914281 233.336125 225.359594 234.254094 225.636937 234.828313 C 225.914281 235.406438 226.359594 236.332219 226.636937 236.910344 C 226.914281 237.488469 227.359594 238.422063 227.636937 239.008 C 227.914281 239.590031 228.359594 240.531438 228.636937 241.121281 C 228.914281 241.707219 229.355687 242.656438 229.633031 243.250188 C 229.910375 243.843938 230.355687 244.797063 230.633031 245.394719 C 230.910375 245.992375 231.355687 246.957219 231.633031 247.558781 C 231.910375 248.160344 232.355687 249.129094 232.633031 249.738469 C 232.910375 250.343938 233.355687 251.3205 233.633031 251.933781 C 233.910375 252.543156 234.351781 253.527531 234.629125 254.144719 C 234.906469 254.761906 235.351781 255.754094 235.629125 256.371281 C 235.906469 256.992375 236.351781 257.992375 236.629125 258.617375 C 236.906469 259.242375 237.351781 260.250188 237.629125 260.879094 C 237.906469 261.508 238.629125 263.156438 238.629125 263.156438 " transform="matrix(1,0,0,-1,0.199,182.133)"/>
</g>
<g style="fill:rgb(0%,0%,0%);fill-opacity:1;">
  <use xlink:href="#glyph0-1" x="89.327" y="88.498"/>
</g>
<g style="fill:rgb(0%,0%,0%);fill-opacity:1;">
  <use xlink:href="#glyph0-2" x="182.688" y="20.733"/>
</g>
<path style="fill:none;stroke-width:0.3985;stroke-linecap:butt;stroke-linejoin:miter;stroke:rgb(0%,0%,0%);stroke-opacity:1;stroke-dasharray:2.98883,2.98883;stroke-miterlimit:10;" d="M 79.543188 90.968938 L 80.140844 91.359563 L 80.742406 91.750188 L 81.340063 92.144719 L 81.941625 92.535344 L 82.539281 92.925969 L 83.140844 93.3205 L 83.7385 93.711125 L 84.340063 94.10175 L 84.937719 94.492375 L 85.539281 94.886906 L 86.136938 95.277531 L 86.7385 95.668156 L 87.336156 96.062688 L 87.937719 96.453313 L 88.535375 96.843938 L 89.136938 97.238469 L 89.734594 97.629094 L 90.336156 98.019719 L 90.933813 98.41425 L 91.535375 98.804875 L 92.133031 99.1955 L 92.734594 99.586125 L 93.33225 99.980656 L 93.933813 100.371281 L 94.531469 100.761906 L 95.133031 101.156438 L 95.730688 101.547063 L 96.33225 101.937688 L 96.929906 102.332219 L 97.531469 102.722844 L 98.129125 103.113469 L 98.730688 103.504094 L 99.328344 103.898625 L 99.926 104.28925 L 100.527563 104.679875 L 101.125219 105.074406 L 101.726781 105.465031 L 102.324438 105.855656 L 102.926 106.250188 L 103.523656 106.640813 L 104.125219 107.031438 L 104.722875 107.425969 L 105.324438 107.816594 L 105.922094 108.207219 L 106.523656 108.597844 L 107.121313 108.992375 L 107.722875 109.383 L 108.320531 109.773625 L 108.922094 110.168156 L 109.51975 110.558781 L 110.121313 110.949406 L 110.718969 111.343938 L 111.320531 111.734563 L 111.918188 112.125188 L 112.51975 112.515813 L 113.117406 112.910344 L 113.718969 113.300969 L 114.316625 113.691594 L 114.918188 114.086125 L 115.515844 114.47675 L 116.117406 114.867375 L 116.715063 115.261906 L 117.316625 115.652531 L 117.914281 116.043156 L 118.515844 116.437688 L 119.1135 116.828313 L 119.715063 117.218938 L 120.312719 117.609563 L 120.914281 118.004094 L 122.109594 118.785344 L 122.711156 119.179875 L 123.308813 119.5705 L 123.910375 119.961125 L 124.508031 120.355656 L 125.109594 120.746281 L 125.70725 121.136906 L 126.308813 121.527531 L 126.906469 121.922063 L 127.508031 122.312688 L 128.105687 122.703313 L 128.70725 123.097844 L 129.304906 123.488469 L 129.906469 123.879094 L 130.504125 124.273625 L 131.105687 124.66425 L 131.703344 125.054875 L 132.304906 125.449406 L 132.902562 125.840031 L 133.504125 126.230656 L 134.101781 126.621281 L 134.703344 127.015813 L 135.301 127.406438 L 135.902562 127.797063 L 136.500219 128.191594 L 137.101781 128.582219 L 137.699437 128.972844 L 138.301 129.367375 L 138.898656 129.758 L 139.500219 130.148625 L 140.097875 130.53925 L 140.699437 130.933781 L 141.297094 131.324406 L 141.898656 131.715031 L 142.496312 132.109563 L 143.097875 132.500188 L 143.695531 132.890813 L 144.293187 133.285344 L 144.89475 133.675969 L 145.492406 134.066594 L 146.093969 134.461125 L 146.691625 134.85175 L 147.293187 135.242375 L 147.890844 135.633 L 148.492406 136.027531 L 149.090062 136.418156 L 149.691625 136.808781 L 150.289281 137.203313 L 150.890844 137.593938 L 151.4885 137.984563 L 152.090062 138.379094 L 152.687719 138.769719 L 153.289281 139.160344 L 153.886937 139.550969 L 154.4885 139.9455 L 155.086156 140.336125 L 155.687719 140.72675 L 156.285375 141.121281 L 156.886937 141.511906 L 157.484594 141.902531 L 158.086156 142.297063 L 158.683812 142.687688 L 159.285375 143.078313 L 159.883031 143.472844 L 160.484594 143.863469 L 161.08225 144.254094 L 161.683812 144.644719 L 162.281469 145.03925 L 162.883031 145.429875 L 163.480687 145.8205 L 164.08225 146.215031 L 164.679906 146.605656 L 165.281469 146.996281 L 165.879125 147.390813 L 166.480687 147.781438 L 167.676 148.562688 L 168.277562 148.957219 L 168.875219 149.347844 L 169.476781 149.738469 L 170.074437 150.133 L 170.676 150.523625 L 171.273656 150.91425 L 171.875219 151.308781 L 172.472875 151.699406 L 173.074437 152.090031 L 173.672094 152.484563 L 174.273656 152.875188 L 174.871312 153.265813 L 175.472875 153.656438 L 176.070531 154.050969 L 176.672094 154.441594 L 177.26975 154.832219 L 177.871312 155.22675 L 178.468969 155.617375 L 179.070531 156.008 L 179.668187 156.402531 L 180.26975 156.793156 L 180.867406 157.183781 L 181.468969 157.574406 L 182.066625 157.968938 L 182.668187 158.359563 L 183.265844 158.750188 L 183.867406 159.144719 L 184.465062 159.535344 L 185.066625 159.925969 L 185.664281 160.3205 L 186.265844 160.711125 L 186.8635 161.10175 L 187.465062 161.496281 L 188.062719 161.886906 L 188.664281 162.277531 L 189.261937 162.668156 L 189.859594 163.062688 L 190.461156 163.453313 L 191.058812 163.843938 L 191.660375 164.238469 L 192.258031 164.629094 L 192.859594 165.019719 L 193.45725 165.41425 L 194.058812 165.804875 L 194.656469 166.1955 L 195.258031 166.586125 L 195.855687 166.980656 L 196.45725 167.371281 L 197.054906 167.761906 L 197.656469 168.156438 L 198.254125 168.547063 L 198.855687 168.937688 " transform="matrix(1,0,0,-1,0.199,182.133)"/>
<path style="fill:none;stroke-width:0.3985;stroke-linecap:butt;stroke-linejoin:miter;stroke:rgb(0%,0%,0%);stroke-opacity:1;stroke-dasharray:2.98883,2.98883;stroke-miterlimit:10;" d="M 99.429906 51.980656 L 99.429906 103.965031 " transform="matrix(1,0,0,-1,0.199,182.133)"/>
<path style="fill:none;stroke-width:0.3985;stroke-linecap:butt;stroke-linejoin:miter;stroke:rgb(0%,0%,0%);stroke-opacity:1;stroke-dasharray:2.98883,2.98883;stroke-miterlimit:10;" d="M 59.656469 103.965031 L 99.429906 103.965031 " transform="matrix(1,0,0,-1,0.199,182.133)"/>
<path style="fill:none;stroke-width:0.3985;stroke-linecap:butt;stroke-linejoin:miter;stroke:rgb(0%,0%,0%);stroke-opacity:1;stroke-dasharray:2.98883,2.98883;stroke-miterlimit:10;" d="M 178.972875 51.980656 L 178.972875 155.9455 " transform="matrix(1,0,0,-1,0.199,182.133)"/>
<path style="fill:none;stroke-width:0.3985;stroke-linecap:butt;stroke-linejoin:miter;stroke:rgb(0%,0%,0%);stroke-opacity:1;stroke-dasharray:2.98883,2.98883;stroke-miterlimit:10;" d="M 59.656469 155.9455 L 178.972875 155.9455 " transform="matrix(1,0,0,-1,0.199,182.133)"/>
<g style="fill:rgb(0%,0%,0%);fill-opacity:1;">
  <use xlink:href="#glyph1-1" x="96.78" y="142.693"/>
</g>
<g style="fill:rgb(0%,0%,0%);fill-opacity:1;">
  <use xlink:href="#glyph1-1" x="163.235" y="143.537"/>
</g>
<g style="fill:rgb(0%,0%,0%);fill-opacity:1;">
  <use xlink:href="#glyph0-3" x="171.143" y="143.537"/>
</g>
<g style="fill:rgb(0%,0%,0%);fill-opacity:1;">
  <use xlink:href="#glyph0-4" x="181.103607" y="143.537"/>
</g>
<g style="fill:rgb(0%,0%,0%);fill-opacity:1;">
  <use xlink:href="#glyph1-1" x="189.408" y="143.537"/>
</g>
<g style="fill:rgb(0%,0%,0%);fill-opacity:1;">
  <use xlink:href="#glyph1-2" x="34.251" y="80.661"/>
</g>
<g style="fill:rgb(0%,0%,0%);fill-opacity:1;">
  <use xlink:href="#glyph0-5" x="40.201" y="80.661"/>
</g>
<g style="fill:rgb(0%,0%,0%);fill-opacity:1;">
  <use xlink:href="#glyph1-1" x="44.075" y="80.661"/>
</g>
<g style="fill:rgb(0%,0%,0%);fill-opacity:1;">
  <use xlink:href="#glyph0-6" x="49.769" y="80.661"/>
</g>
<g style="fill:rgb(0%,0%,0%);fill-opacity:1;">
  <use xlink:href="#glyph1-2" x="9.233" y="28.681"/>
</g>
<g style="fill:rgb(0%,0%,0%);fill-opacity:1;">
  <use xlink:href="#glyph0-5" x="15.183" y="28.681"/>
</g>
<g style="fill:rgb(0%,0%,0%);fill-opacity:1;">
  <use xlink:href="#glyph1-1" x="19.058" y="28.681"/>
</g>
<g style="fill:rgb(0%,0%,0%);fill-opacity:1;">
  <use xlink:href="#glyph0-3" x="26.965" y="28.681"/>
</g>
<g style="fill:rgb(0%,0%,0%);fill-opacity:1;">
  <use xlink:href="#glyph0-4" x="36.925607" y="28.681"/>
</g>
<g style="fill:rgb(0%,0%,0%);fill-opacity:1;">
  <use xlink:href="#glyph1-1" x="45.23" y="28.681"/>
</g>
<g style="fill:rgb(0%,0%,0%);fill-opacity:1;">
  <use xlink:href="#glyph0-6" x="50.924" y="28.681"/>
</g>
<g style="fill:rgb(0%,0%,0%);fill-opacity:1;">
  <use xlink:href="#glyph0-4" x="132.399" y="154.348"/>
</g>
<g style="fill:rgb(0%,0%,0%);fill-opacity:1;">
  <use xlink:href="#glyph1-1" x="140.702" y="154.348"/>
</g>
<path style="fill-rule:nonzero;fill:rgb(0%,0%,0%);fill-opacity:1;stroke-width:0.3985;stroke-linecap:butt;stroke-linejoin:miter;stroke:rgb(0%,0%,0%);stroke-opacity:1;stroke-miterlimit:10;" d="M 101.422094 103.965031 C 101.422094 105.062688 100.527563 105.957219 99.429906 105.957219 C 98.328344 105.957219 97.437719 105.062688 97.437719 103.965031 C 97.437719 102.863469 98.328344 101.968938 99.429906 101.968938 C 100.527563 101.968938 101.422094 102.863469 101.422094 103.965031 Z M 101.422094 103.965031 " transform="matrix(1,0,0,-1,0.199,182.133)"/>
<path style="fill-rule:nonzero;fill:rgb(0%,0%,0%);fill-opacity:1;stroke-width:0.3985;stroke-linecap:butt;stroke-linejoin:miter;stroke:rgb(0%,0%,0%);stroke-opacity:1;stroke-miterlimit:10;" d="M 180.965062 155.9455 C 180.965062 157.047063 180.070531 157.937688 178.972875 157.937688 C 177.871312 157.937688 176.980687 157.047063 176.980687 155.9455 C 176.980687 154.843938 177.871312 153.953313 178.972875 153.953313 C 180.070531 153.953313 180.965062 154.843938 180.965062 155.9455 Z M 180.965062 155.9455 " transform="matrix(1,0,0,-1,0.199,182.133)"/>
<g style="fill:rgb(0%,0%,0%);fill-opacity:1;">
  <use xlink:href="#glyph1-1" x="229.611" y="126.632"/>
</g>
<g style="fill:rgb(0%,0%,0%);fill-opacity:1;">
  <use xlink:href="#glyph1-3" x="63.375" y="8.009"/>
</g>
</g>
</svg>
